<svg width="204" height="65" viewBox="0 0 204 65" fill="none" xmlns="http://www.w3.org/2000/svg">
<path d="M59.6449 60.5572C59.4827 60.7563 59.232 60.8596 58.9813 60.9186C58.0595 61.1324 57.1082 60.8374 56.2086 60.5204C54.1511 59.7977 52.1601 58.898 50.1248 58.1164C48.6057 57.5117 47.0645 56.9512 45.4864 56.5309C43.842 56.0884 42.1164 55.7935 40.413 55.9188C38.975 56.0295 37.5518 56.3908 36.2318 57.0029C35.0003 57.5707 33.9236 58.3745 32.9724 59.3479C32.9724 58.4703 32.9724 39.3268 32.9724 38.6484C32.9724 37.9773 32.9724 37.5496 33.1641 37.0851C33.3337 36.6795 33.5623 36.414 33.8794 36.119C34.6463 35.3964 35.7082 34.9687 36.7553 34.9908C39.0708 34.7622 41.1725 36.001 43.2594 36.7975C44.513 37.2768 45.8404 37.6529 47.1751 37.8299C48.6057 38.0216 50.0584 37.9847 51.489 37.9405C52.2043 37.9183 52.2043 37.9183 52.3961 38.641C52.7722 39.6144 53.1188 40.6026 53.4727 41.5833C54.1511 43.4564 54.8296 45.3294 55.508 47.2025C56.2454 49.2525 56.9828 51.3099 57.7203 53.36C58.1553 54.5694 58.6126 55.8156 59.0329 57.0397C59.2467 57.6739 59.4606 58.3081 59.6597 58.9496C59.8367 59.4511 60.0063 60.1074 59.6449 60.5572ZM30.0448 59.3552C29.0935 58.3818 28.0169 57.578 26.7854 57.0102C25.4654 56.4055 24.0422 56.0368 22.6042 55.9262C20.9007 55.8008 19.1752 56.0958 17.5307 56.5383C15.9526 56.9586 14.4114 57.519 12.8923 58.1237C10.857 58.9054 8.87338 59.8051 6.8086 60.5277C5.91632 60.8374 4.95767 61.1398 4.03589 60.9259C3.78516 60.8669 3.53444 60.7637 3.37221 60.5646C3.01087 60.1148 3.18048 59.4585 3.33534 58.9644C3.53444 58.3228 3.74829 57.6887 3.96215 57.0545C4.38985 55.823 4.84705 54.5841 5.27476 53.3747C6.01218 51.3173 6.7496 49.2673 7.48703 47.2172C8.16545 45.3442 8.84388 43.4711 9.52231 41.5981C9.87628 40.6173 10.2229 39.6292 10.599 38.6558C10.7907 37.9331 10.7907 37.9331 11.506 37.9552C12.944 37.9995 14.3967 38.029 15.8199 37.8446C17.1546 37.6676 18.4746 37.2915 19.7356 36.8122C21.8299 36.0158 23.6513 34.9097 26.2397 35.0055C27.2868 34.9834 28.3487 35.4111 29.1156 36.1338C29.4327 36.4288 29.6687 36.6942 29.8309 37.0998C30.0227 37.5644 30.0227 37.9847 30.0227 38.6631C30.0448 39.3342 30.0448 58.4703 30.0448 59.3552ZM62.4103 60.0337C62.2775 59.6871 60.2275 54.1638 58.1332 48.5299C57.5433 46.9444 56.9534 45.3589 56.3634 43.7735C55.8546 42.4093 55.3458 41.045 54.8443 39.6808C54.5125 38.7738 54.1733 37.8741 53.8414 36.9671C53.7382 36.6869 53.6423 36.4214 53.5612 36.1338C53.5022 35.9347 53.3916 35.7282 53.1999 35.6545C53.0598 35.6028 52.9123 35.6323 52.7648 35.6618C51.1498 35.9494 49.4685 35.7872 47.8683 35.4996C46.2828 35.2194 44.6753 34.7769 43.1857 34.1354C42.4851 33.833 41.7551 33.5897 41.0471 33.3095C39.7124 32.7933 38.2597 32.1296 36.7922 32.3066C36.099 32.3877 35.4575 32.6826 34.838 32.9924C34.5062 33.162 34.1744 33.3463 33.8573 33.5307C33.2305 33.892 32.6258 34.2681 32.0285 34.6811C31.8736 34.7843 31.7187 34.9244 31.5344 34.9244C31.35 34.917 31.1878 34.7843 31.0403 34.6811C30.4504 34.2755 29.8383 33.892 29.2115 33.5307C28.887 33.3463 28.5626 33.162 28.2234 32.9924C27.6039 32.6826 26.9624 32.3877 26.2692 32.3066C24.8017 32.1296 23.349 32.8006 22.0143 33.3095C21.3063 33.5823 20.5763 33.833 19.8757 34.1354C18.3861 34.7769 16.7786 35.212 15.1931 35.4996C13.5929 35.7872 11.9116 35.9494 10.2966 35.6618C10.1491 35.6323 9.99426 35.6028 9.86153 35.6545C9.6698 35.7282 9.55919 35.9347 9.50019 36.1338C9.4117 36.414 9.32321 36.6869 9.21997 36.9671C8.88813 37.8741 8.54891 38.7738 8.21707 39.6808C7.70825 41.045 7.20681 42.4093 6.69798 43.7735C6.10805 45.3589 5.51811 46.9444 4.92817 48.5299C2.83389 54.1638 0.776478 59.6797 0.643742 60.0337C0.393019 60.7121 0.0316805 61.3979 0.00218359 62.1353C-0.0125649 62.4082 0.0464303 62.7031 0.208663 62.917C0.363522 63.1235 0.592123 63.2488 0.828098 63.3226C1.15256 63.4258 1.49915 63.4701 1.83837 63.4922C3.21735 63.5733 4.61845 63.2636 5.95319 62.9391C7.0372 62.6736 8.10646 62.3713 9.16835 62.0394C11.3069 61.3684 13.4085 60.572 15.5176 59.8124C16.4762 59.4658 17.4275 59.1193 18.4009 58.8243C19.3153 58.5441 20.2149 58.286 21.1736 58.2638C23.2236 58.2196 25.2147 59.0824 26.8665 60.2623C28.4888 61.42 30.0595 62.8506 31.1952 64.5098C31.3205 64.7015 31.4238 64.79 31.527 64.7974C31.6303 64.7974 31.7335 64.7015 31.8589 64.5098C32.9945 62.8506 34.5652 61.42 36.1875 60.2623C37.8393 59.0824 39.8304 58.2122 41.8804 58.2638C42.8391 58.286 43.7387 58.5441 44.6531 58.8243C45.6265 59.1193 46.5852 59.4658 47.5365 59.8124C49.6455 60.572 51.7471 61.3684 53.8857 62.0394C54.9476 62.3713 56.0242 62.6736 57.1008 62.9391C58.4356 63.2636 59.8367 63.5733 61.2157 63.4922C61.5549 63.4701 61.9015 63.4258 62.2259 63.3226C62.4619 63.2488 62.6979 63.1161 62.8454 62.917C63.0076 62.6958 63.0666 62.4082 63.0518 62.1353C63.015 61.3979 62.661 60.7121 62.4103 60.0337Z" fill="white"/>
<path d="M59.4753 0L55.8988 7.38898L47.9052 8.56885L53.6865 14.3208L52.3223 22.4398L59.4753 18.6052L66.6209 22.4398L65.2567 14.3208L71.0455 8.56885L63.0444 7.38898L59.4753 0Z" fill="white"/>
<path d="M36.4088 3.98242L38.3261 7.94976L42.6105 8.58394L39.506 11.6664L40.2434 16.0245L36.4088 13.9671L32.5668 16.0245L33.3043 11.6664L30.1997 8.58394L34.4841 7.94976L36.4088 3.98242Z" fill="white"/>
<path d="M47.3227 23.4424L48.6869 26.2741L51.7472 26.7239L49.5349 28.9288L50.0585 32.0407L47.3227 30.5659L44.5794 32.0407L45.103 28.9288L42.8907 26.7239L45.9511 26.2741L47.3227 23.4424Z" fill="white"/>
<path d="M53.6864 14.3203C53.6864 14.3203 39.0043 14.9692 26.2395 28.1986C13.4747 41.4206 11.5869 53.7356 11.5869 53.7356L17.7591 51.6118L23.9387 53.7356C23.9387 53.7356 24.8974 43.242 32.633 32.1807C40.3759 21.1267 53.6864 14.3203 53.6864 14.3203Z" fill="white"/>
<path d="M82.6454 11.3789H81.318V14.7268H79.4081V6.41602H81.318V9.77866H82.697L84.8798 6.41602H86.9077L84.1866 10.435L86.9888 14.7341H84.806L82.6454 11.3789Z" fill="white"/>
<path d="M90.3515 14.3134C89.6583 13.9447 89.1126 13.4285 88.7218 12.7722C88.3309 12.1159 88.1318 11.3858 88.1318 10.5673C88.1318 9.74875 88.3309 9.0187 88.7218 8.3624C89.1126 7.70609 89.6583 7.19727 90.3515 6.82118C91.0447 6.45247 91.8263 6.26074 92.6891 6.26074C93.5519 6.26074 94.3262 6.4451 95.0194 6.82118C95.7052 7.18989 96.2509 7.70609 96.6491 8.3624C97.0473 9.0187 97.2464 9.74875 97.2464 10.5673C97.2464 11.3858 97.0473 12.1159 96.6491 12.7722C96.2509 13.4285 95.7125 13.9373 95.0194 14.3134C94.3336 14.6821 93.5519 14.8738 92.6891 14.8738C91.8263 14.8738 91.0447 14.6895 90.3515 14.3134ZM94.0165 12.8975C94.4147 12.6689 94.7244 12.3592 94.9456 11.9536C95.1742 11.5481 95.2848 11.0909 95.2848 10.5747C95.2848 10.0585 95.1742 9.60127 94.9456 9.19568C94.717 8.7901 94.4073 8.48038 94.0165 8.25178C93.6183 8.02318 93.1758 7.91257 92.6891 7.91257C92.195 7.91257 91.7526 8.02318 91.3618 8.25178C90.9635 8.48038 90.6538 8.7901 90.4326 9.19568C90.204 9.60127 90.0934 10.0585 90.0934 10.5747C90.0934 11.0909 90.204 11.5481 90.4326 11.9536C90.6612 12.3592 90.9709 12.6689 91.3618 12.8975C91.76 13.1261 92.2024 13.2368 92.6891 13.2368C93.1758 13.2368 93.6183 13.1188 94.0165 12.8975Z" fill="white"/>
<path d="M106.752 6.41558V14.7337H104.849V7.98629H101.995L101.936 9.71923C101.899 10.8991 101.804 11.8578 101.649 12.5878C101.501 13.3179 101.243 13.8857 100.897 14.2765C100.543 14.6673 100.048 14.8664 99.4143 14.8664C99.1562 14.8664 98.8391 14.8222 98.463 14.7337L98.581 13.104C98.6842 13.1335 98.8022 13.1482 98.9276 13.1482C99.3848 13.1482 99.7093 12.8754 99.8862 12.3371C100.071 11.7914 100.181 10.9434 100.233 9.7856L100.351 6.4082H106.752V6.41558Z" fill="white"/>
<path d="M117.039 6.41558V14.7337H115.136V7.98629H112.282L112.223 9.71923C112.186 10.8991 112.091 11.8578 111.936 12.5878C111.788 13.3179 111.53 13.8857 111.183 14.2765C110.83 14.6673 110.335 14.8664 109.701 14.8664C109.443 14.8664 109.126 14.8222 108.75 14.7337L108.868 13.104C108.971 13.1335 109.089 13.1482 109.215 13.1482C109.672 13.1482 109.996 12.8754 110.173 12.3371C110.358 11.7914 110.468 10.9434 110.52 9.7856L110.638 6.4082H117.039V6.41558Z" fill="white"/>
<path d="M126.411 13.1856V14.7268H119.974V6.41602H126.256V7.95723H121.883V9.76392H125.748V11.2609H121.883V13.1856H126.411Z" fill="white"/>
<path d="M137.407 13.1634V16.4523H135.622V14.7268H129.752V16.4523H127.968L127.982 13.1634H128.314C128.816 13.1487 129.162 12.78 129.369 12.072C129.575 11.3567 129.701 10.3391 129.752 9.01912L129.848 6.41602H136.242V13.1634H137.407ZM131.205 11.6812C131.08 12.3523 130.888 12.8463 130.622 13.1634H134.339V7.98673H131.485L131.448 9.1961C131.411 10.1842 131.33 11.0175 131.205 11.6812Z" fill="white"/>
<path d="M147.096 11.3784H145.887V14.7263H143.999V11.3784H142.76L140.894 14.7263H138.675L141.167 10.3755L138.83 6.4082H140.858L142.723 9.77085H143.992V6.4082H145.879V9.77085H147.118L148.999 6.4082H151.027L148.696 10.3755L151.182 14.7263H148.962L147.096 11.3784Z" fill="white"/>
<path d="M87.0109 20.9941V29.3123H85.101V22.5649H81.3475V29.3123H79.4302V20.9941H87.0109Z" fill="white"/>
<path d="M95.4471 21.3629C95.9928 21.6062 96.4057 21.9602 96.7007 22.41C96.9957 22.8598 97.1431 23.3981 97.1431 24.0176C97.1431 24.6296 96.9957 25.1606 96.7007 25.6178C96.4057 26.075 95.9928 26.4216 95.4471 26.6649C94.9014 26.9083 94.2672 27.0263 93.5298 27.0263H91.8558V29.3196H89.9312V20.9941H93.5298C94.2672 20.9941 94.9088 21.1195 95.4471 21.3629ZM94.7391 25.0721C95.0415 24.8214 95.189 24.4674 95.189 24.0102C95.189 23.5456 95.0415 23.1843 94.7391 22.9336C94.4368 22.6828 94.0017 22.5575 93.4192 22.5575H91.8485V25.4408H93.4192C94.0017 25.4482 94.4368 25.3228 94.7391 25.0721Z" fill="white"/>
<path d="M105.705 27.7637V29.3049H99.267V20.9941H105.55V22.5354H101.184V24.342H105.048V25.839H101.184V27.7637H105.705Z" fill="white"/>
<path d="M113.978 25.7504C114.251 26.1044 114.391 26.51 114.391 26.9819C114.391 27.4907 114.222 27.9258 113.89 28.3019C113.558 28.6706 113.108 28.9582 112.54 29.1573C111.972 29.3564 111.353 29.4523 110.682 29.4523C110.114 29.4523 109.546 29.3785 108.979 29.2384C108.411 29.0983 107.872 28.8771 107.371 28.5821L107.968 27.2031C108.33 27.4244 108.735 27.594 109.178 27.7046C109.62 27.8226 110.048 27.8742 110.468 27.8742C111.036 27.8742 111.508 27.7709 111.891 27.5645C112.267 27.358 112.459 27.0704 112.459 26.6943C112.459 26.3846 112.334 26.1486 112.076 25.9938C111.818 25.8389 111.471 25.7578 111.021 25.7578H108.993V24.3051H110.881C111.272 24.3051 111.574 24.2239 111.788 24.0691C112.009 23.9142 112.113 23.693 112.113 23.4128C112.113 23.0883 111.958 22.8376 111.641 22.6532C111.331 22.4689 110.925 22.3804 110.431 22.3804C110.07 22.3804 109.694 22.432 109.303 22.5279C108.912 22.6237 108.543 22.7786 108.197 22.9703L107.614 21.4734C108.492 21.0235 109.443 20.7949 110.468 20.7949C111.117 20.7949 111.714 20.8908 112.26 21.0825C112.806 21.2742 113.241 21.5471 113.565 21.9158C113.89 22.2771 114.052 22.7048 114.052 23.1842C114.052 23.5824 113.949 23.929 113.735 24.2387C113.521 24.5484 113.226 24.7844 112.857 24.954C113.329 25.1383 113.705 25.4038 113.978 25.7504Z" fill="white"/>
<path d="M116.766 20.9941H118.676V26.4142L122.643 20.9941H124.45V29.3123H122.547V23.907L118.58 29.3123H116.766V20.9941Z" fill="white"/>
<path d="M135.895 27.7416V31.0305H134.11V29.3049H128.24V31.0305H126.456L126.47 27.7416H126.802C127.304 27.7268 127.65 27.3581 127.857 26.6502C128.063 25.9349 128.189 24.9172 128.24 23.5972L128.336 20.9941H134.729V27.7416H135.895ZM129.693 26.2667C129.568 26.9378 129.376 27.4318 129.11 27.7489H132.827V22.5722H129.973L129.936 23.7816C129.899 24.7624 129.818 25.5957 129.693 26.2667Z" fill="white"/>
<path d="M144.486 27.7637V29.3049H138.048V20.9941H144.331V22.5354H139.958V24.342H143.822V25.839H139.958V27.7637H144.486Z" fill="white"/>
<path d="M154.522 20.9941V29.3123H152.597V25.898H148.822V29.3049H146.897V20.9941H148.822V24.2757H152.597V20.9941H154.522Z" fill="white"/>
<path d="M163.814 22.5649H161.151V29.3123H159.249V22.5649H156.602V20.9941H163.814V22.5649Z" fill="white"/>
<path d="M167.397 28.8998C166.711 28.5311 166.173 28.0222 165.782 27.3659C165.391 26.7096 165.192 25.9722 165.192 25.1537C165.192 24.3278 165.391 23.5903 165.782 22.9414C166.173 22.2851 166.711 21.7763 167.397 21.4076C168.083 21.0388 168.85 20.8545 169.705 20.8545C170.428 20.8545 171.077 20.9799 171.659 21.238C172.242 21.4887 172.729 21.8574 173.127 22.3293L171.888 23.4723C171.328 22.8234 170.627 22.4989 169.794 22.4989C169.278 22.4989 168.82 22.6096 168.415 22.8382C168.009 23.0668 167.699 23.3765 167.471 23.7821C167.242 24.1876 167.132 24.6448 167.132 25.161C167.132 25.6772 167.242 26.1344 167.471 26.54C167.699 26.9456 168.009 27.2553 168.415 27.4839C168.82 27.7125 169.278 27.8231 169.794 27.8231C170.627 27.8231 171.32 27.4913 171.888 26.835L173.127 27.978C172.729 28.4647 172.242 28.826 171.652 29.0841C171.07 29.3349 170.413 29.4676 169.691 29.4676C168.843 29.4528 168.083 29.2685 167.397 28.8998Z" fill="white"/>
<path d="M178.459 25.957H177.131V29.3049H175.221V20.9941H177.131V24.3568H178.51L180.693 20.9941H182.728L180.007 25.0131L182.81 29.3123H180.627L178.459 25.957Z" fill="white"/>
<path d="M186.165 28.8925C185.472 28.5238 184.926 28.0076 184.535 27.3513C184.144 26.695 183.945 25.9649 183.945 25.1464C183.945 24.3279 184.144 23.5978 184.535 22.9415C184.926 22.2852 185.472 21.7764 186.165 21.4003C186.858 21.0316 187.64 20.8398 188.502 20.8398C189.365 20.8398 190.14 21.0242 190.833 21.4003C191.519 21.769 192.064 22.2852 192.462 22.9415C192.861 23.5978 193.06 24.3279 193.06 25.1464C193.06 25.9649 192.861 26.695 192.462 27.3513C192.064 28.0076 191.526 28.5164 190.833 28.8925C190.147 29.2612 189.365 29.4529 188.502 29.4529C187.64 29.4529 186.858 29.2686 186.165 28.8925ZM189.83 27.4766C190.228 27.248 190.538 26.9383 190.759 26.5327C190.988 26.1272 191.098 25.67 191.098 25.1538C191.098 24.6376 190.988 24.1804 190.759 23.7748C190.53 23.3692 190.221 23.0595 189.83 22.8309C189.432 22.6023 188.989 22.4917 188.502 22.4917C188.008 22.4917 187.566 22.6023 187.175 22.8309C186.777 23.0595 186.467 23.3692 186.246 23.7748C186.017 24.1804 185.907 24.6376 185.907 25.1538C185.907 25.67 186.017 26.1272 186.246 26.5327C186.475 26.9383 186.784 27.248 187.175 27.4766C187.573 27.7052 188.016 27.8159 188.502 27.8159C188.989 27.8159 189.432 27.6979 189.83 27.4766Z" fill="white"/>
<path d="M195.39 20.994H197.3V26.414L201.267 20.994H203.074V29.3121H201.179V23.9068L197.211 29.3121H195.397V20.994H195.39ZM196.924 18.6416H198.244C198.258 19.2168 198.59 19.5118 199.232 19.5118C199.549 19.5118 199.792 19.438 199.955 19.2905C200.124 19.1431 200.205 18.9292 200.213 18.6416H201.533C201.525 19.2389 201.334 19.6887 200.95 19.9985C200.567 20.3082 199.999 20.463 199.224 20.463C197.705 20.463 196.938 19.851 196.924 18.6416Z" fill="white"/>
<path d="M92.9914 40.5435H91.6641V43.8914H89.7542V35.5732H91.6641V38.9359H93.0431L95.2258 35.5732H97.2537L94.5327 39.5922L97.3349 43.8914H95.1521L92.9914 40.5435Z" fill="white"/>
<path d="M104.569 42.1068H100.705L99.9675 43.8914H97.9985L101.708 35.5732H103.61L107.327 43.8914H105.306L104.569 42.1068ZM103.957 40.6467L102.637 37.461L101.317 40.6467H103.957Z" fill="white"/>
<path d="M85.123 42.1068H81.259L80.5215 43.8914H78.5526L82.2619 35.5732H84.1644L87.881 43.8914H85.8605L85.123 42.1068ZM84.5184 40.6467L83.1984 37.461L81.8784 40.6467H84.5184Z" fill="white"/>
<path d="M117.931 42.3201V45.609H116.147V43.8908H110.277V45.6164H108.492L108.507 42.3275H108.839C109.34 42.3127 109.687 41.944 109.893 41.2361C110.1 40.5208 110.225 39.5032 110.277 38.1832L110.372 35.5801H116.766V42.3275H117.931V42.3201ZM111.729 40.8453C111.604 41.5163 111.412 42.0104 111.147 42.3275H114.863V37.1508H112.01L111.973 38.3602C111.943 39.3483 111.855 40.1742 111.729 40.8453Z" fill="white"/>
<path d="M126.522 42.3502V43.8914H120.084V35.5732H126.367V37.1145H121.994V38.9211H125.858V40.4255H121.994V42.3502H126.522Z" fill="white"/>
<path d="M136.499 43.8914L136.485 38.9138L134.036 43.0138H133.188L130.74 39.0096V43.8914H128.933V35.5732H130.526L133.638 40.7426L136.706 35.5732H138.299L138.313 43.8914H136.499Z" fill="white"/>
<path d="M141.226 35.5732H143.136V40.9933L147.103 35.5732H148.91V43.8914H147.008V38.4861L143.04 43.8914H141.226V35.5732Z" fill="white"/>
<path d="M151.838 35.5732H153.748V40.9933L157.715 35.5732H159.522V43.8914H157.619V38.4861L153.652 43.8914H151.838V35.5732Z" fill="white"/>
<path d="M126.492 52.666H170.951V64.391H126.492" fill="white"/>
<path d="M171.379 64.7969H126.492V63.9858H170.516V53.0719H126.492V52.2607H171.379V64.7969Z" fill="#AF2A42"/>
<path d="M80.5273 62.9787V54.0723H125.602V62.9787H80.5273Z" fill="#BF1F42" stroke="white"/>
<path d="M80.1466 62.9708V63.4708H80.6466H125.482H125.982V62.9708V54.0866V53.5866H125.482H80.6466H80.1466V54.0866V62.9708ZM126.221 63.4994H79.9004V53.5645H126.221V63.4994Z" fill="#BF1F42" stroke="white"/>
<path d="M86.7745 56.9807C87.0326 57.0914 87.2317 57.2388 87.3718 57.4453C87.5119 57.6444 87.5783 57.8804 87.5783 58.1606C87.5783 58.4335 87.5119 58.6694 87.3718 58.8685C87.2317 59.0676 87.0326 59.2225 86.7745 59.3331C86.5164 59.4437 86.214 59.4954 85.8601 59.4954H84.953V60.5794H84.2083V56.8259H85.8675C86.214 56.8185 86.5164 56.8701 86.7745 56.9807ZM86.568 58.7063C86.7376 58.581 86.8187 58.3966 86.8187 58.1532C86.8187 57.9173 86.7376 57.7329 86.568 57.6002C86.3984 57.4748 86.155 57.4085 85.8232 57.4085H84.9457V58.898H85.8232C86.155 58.898 86.3984 58.8391 86.568 58.7063Z" fill="white"/>
<path d="M92.3863 59.7017H90.3732L89.975 60.5718H89.2007L91.0147 56.8184H91.7522L93.5662 60.5718H92.7846L92.3863 59.7017ZM92.1356 59.156L91.3761 57.5115L90.6239 59.156H92.1356Z" fill="white"/>
<path d="M99.141 56.8184V60.5718H98.3962V58.9643H96.3167V60.5718H95.5719V56.8184H96.3167V58.3669H98.3962V56.8184H99.141Z" fill="white"/>
<path d="M102.106 56.8184L103.057 58.072L104.008 56.8184H104.886L103.536 58.6177L104.996 60.5718H104.111L103.064 59.2076L102.024 60.5718H101.162L102.614 58.6472L101.25 56.8184H102.106Z" fill="white"/>
<path d="M107.002 56.8184H107.739V59.4878L109.9 56.8184H110.593V60.5718H109.856V57.9097L107.695 60.5718H107.002V56.8184Z" fill="white"/>
<path d="M115.829 57.4083H113.831L113.838 60.5718H113.101V56.8184H115.837L115.829 57.4083Z" fill="white"/>
<path d="M118.587 60.38C118.263 60.2104 118.004 59.9818 117.813 59.6942C117.628 59.3992 117.532 59.0674 117.532 58.6987C117.532 58.3299 117.628 57.9981 117.813 57.7031C117.997 57.4082 118.255 57.1796 118.587 57.0173C118.911 56.8477 119.28 56.7666 119.686 56.7666C120.018 56.7666 120.32 56.8182 120.585 56.9288C120.858 57.0395 121.087 57.1943 121.279 57.3934L120.792 57.8137C120.497 57.5188 120.143 57.3713 119.715 57.3713C119.442 57.3713 119.192 57.4303 118.97 57.5409C118.749 57.6515 118.58 57.8064 118.462 58.0128C118.336 58.212 118.277 58.4405 118.277 58.6913C118.277 58.942 118.336 59.1706 118.462 59.3697C118.587 59.5688 118.757 59.7237 118.97 59.8417C119.192 59.9523 119.435 60.0113 119.715 60.0113C120.143 60.0113 120.497 59.8638 120.792 59.5688L121.279 59.9965C121.094 60.203 120.858 60.3578 120.585 60.4611C120.313 60.5717 120.01 60.6233 119.678 60.6233C119.288 60.6307 118.919 60.5422 118.587 60.38Z" fill="white"/>
<path d="M135.378 60.5714L135.371 58.0789L134.051 60.1363H133.719L132.399 58.1084V60.564H131.691V56.8105H132.303L133.896 59.2957L135.474 56.8105H136.086L136.101 60.564H135.378V60.5714Z" fill="#AF2A42"/>
<path d="M139.345 60.38C139.014 60.2104 138.755 59.9818 138.571 59.6868C138.387 59.3918 138.291 59.06 138.291 58.6987C138.291 58.3373 138.387 58.0055 138.571 57.7105C138.755 57.4155 139.021 57.1869 139.345 57.0173C139.677 56.8477 140.046 56.7666 140.459 56.7666C140.872 56.7666 141.241 56.8477 141.572 57.0173C141.904 57.1869 142.162 57.4155 142.347 57.7031C142.531 57.9981 142.627 58.3299 142.627 58.6987C142.627 59.0674 142.531 59.3992 142.347 59.6942C142.162 59.9891 141.897 60.2177 141.572 60.38C141.241 60.5496 140.872 60.6307 140.459 60.6307C140.046 60.6307 139.677 60.5422 139.345 60.38ZM141.182 59.849C141.395 59.7384 141.565 59.5762 141.69 59.3771C141.816 59.178 141.875 58.9494 141.875 58.6987C141.875 58.4479 141.816 58.2193 141.69 58.0202C141.565 57.8211 141.395 57.6589 141.182 57.5483C140.968 57.4377 140.724 57.3787 140.459 57.3787C140.193 57.3787 139.95 57.4377 139.736 57.5483C139.522 57.6589 139.353 57.8211 139.227 58.0202C139.102 58.2193 139.043 58.4479 139.043 58.6987C139.043 58.9494 139.102 59.178 139.227 59.3771C139.353 59.5762 139.522 59.7384 139.736 59.849C139.95 59.9596 140.193 60.0186 140.459 60.0186C140.724 60.0186 140.968 59.9596 141.182 59.849Z" fill="#AF2A42"/>
<path d="M145.577 60.38C145.252 60.2104 144.994 59.9818 144.802 59.6942C144.618 59.3992 144.522 59.0674 144.522 58.6987C144.522 58.3299 144.618 57.9981 144.802 57.7031C144.987 57.4082 145.245 57.1796 145.577 57.0173C145.901 56.8477 146.27 56.7666 146.675 56.7666C147.007 56.7666 147.31 56.8182 147.575 56.9288C147.848 57.0395 148.077 57.1943 148.268 57.3934L147.782 57.8137C147.487 57.5188 147.133 57.3713 146.705 57.3713C146.432 57.3713 146.181 57.4303 145.96 57.5409C145.739 57.6515 145.569 57.8064 145.451 58.0128C145.326 58.212 145.267 58.4405 145.267 58.6913C145.267 58.942 145.326 59.1706 145.451 59.3697C145.577 59.5688 145.746 59.7237 145.96 59.8417C146.181 59.9523 146.425 60.0113 146.705 60.0113C147.133 60.0113 147.487 59.8638 147.782 59.5688L148.268 59.9965C148.084 60.203 147.848 60.3578 147.575 60.4611C147.302 60.5717 147 60.6233 146.668 60.6233C146.27 60.6307 145.901 60.5422 145.577 60.38Z" fill="#AF2A42"/>
<path d="M151.83 58.9932H151.085V60.5787H150.348V56.8252H151.085V58.3959H151.859L153.017 56.8252H153.814L152.442 58.6466L153.865 60.5861H153.017L151.83 58.9932Z" fill="#AF2A42"/>
<path d="M159.116 58.9495C159.249 59.1044 159.315 59.2961 159.315 59.5321C159.315 59.8639 159.182 60.1146 158.924 60.299C158.666 60.4833 158.283 60.5718 157.788 60.5718H155.879V56.8184H157.678C158.128 56.8184 158.482 56.8995 158.74 57.0691C158.99 57.2387 159.116 57.4747 159.116 57.7844C159.116 57.9835 159.064 58.1531 158.961 58.2932C158.858 58.4333 158.71 58.5439 158.519 58.6177C158.784 58.684 158.983 58.7946 159.116 58.9495ZM156.616 58.4259H157.619C157.862 58.4259 158.047 58.3817 158.172 58.2932C158.297 58.2047 158.364 58.072 158.364 57.895C158.364 57.718 158.297 57.5853 158.172 57.4968C158.047 57.4083 157.862 57.3567 157.619 57.3567H156.616V58.4259ZM158.563 59.4805C158.563 59.1191 158.297 58.9348 157.766 58.9348H156.616V60.0409H157.766C158.297 60.0409 158.563 59.8492 158.563 59.4805Z" fill="#AF2A42"/>
<path d="M164.211 59.7017H162.198L161.8 60.5718H161.026L162.84 56.8184H163.577L165.391 60.5718H164.61L164.211 59.7017ZM163.961 59.156L163.201 57.5115L162.449 59.156H163.961Z" fill="#AF2A42"/>
</svg>