<?xml version="1.0" encoding="utf-8"?>
<svg xmlns="http://www.w3.org/2000/svg" viewBox="0 0 500 500">
  <path d="M 387.542 407.103 C 386.621 408.248 385.182 408.841 383.744 409.18 C 378.449 410.412 372.983 408.714 367.803 406.89 C 355.949 402.735 344.497 397.556 332.758 393.056 C 324.01 389.58 315.148 386.352 306.113 383.935 C 296.618 381.385 286.72 379.688 276.88 380.413 C 268.593 381.046 260.421 383.129 252.825 386.651 C 245.747 389.919 239.532 394.54 234.065 400.145 C 234.065 395.093 234.065 284.931 234.065 281.024 C 234.065 277.163 234.065 274.7 235.159 272.029 C 236.137 269.693 237.46 268.168 239.302 266.47 C 243.733 262.31 249.833 259.853 255.818 259.979 C 269.169 258.661 281.253 265.791 293.281 270.372 C 300.474 273.134 308.128 275.298 315.781 276.317 C 324.01 277.416 332.412 277.209 340.641 276.95 C 344.727 276.823 344.727 276.823 345.878 280.984 C 348.007 286.583 350.021 292.269 352.036 297.914 C 355.949 308.692 359.862 319.471 363.775 330.249 C 367.976 342.046 372.234 353.89 376.493 365.687 C 378.967 372.644 381.615 379.814 384.032 386.864 C 385.298 390.512 386.506 394.161 387.657 397.849 C 388.693 400.738 389.671 404.513 387.542 407.103 Z M 217.204 400.186 C 211.737 394.586 205.58 389.96 198.444 386.691 C 190.848 383.209 182.676 381.092 174.389 380.453 C 164.606 379.734 154.651 381.431 145.213 383.975 C 136.121 386.392 127.259 389.62 118.512 393.102 C 106.83 397.596 95.378 402.775 83.523 406.936 C 78.344 408.714 72.877 410.458 67.525 409.226 C 66.087 408.887 64.648 408.294 63.727 407.143 C 61.656 404.559 62.634 400.778 63.555 397.936 C 64.648 394.247 65.914 390.598 67.122 386.944 C 69.597 379.86 72.244 372.73 74.661 365.773 C 78.92 353.93 83.178 342.133 87.436 330.336 C 91.292 319.557 95.205 308.779 99.118 298 C 101.133 292.355 103.147 286.669 105.333 281.07 C 106.427 276.909 106.427 276.909 110.513 277.036 C 118.799 277.289 127.201 277.462 135.373 276.397 C 143.026 275.379 150.623 273.215 157.931 270.458 C 169.958 265.878 180.432 259.513 195.336 260.06 C 201.379 259.933 207.479 262.396 211.91 266.557 C 213.694 268.254 215.075 269.779 215.995 272.116 C 217.089 274.786 217.089 277.209 217.089 281.11 C 217.204 284.972 217.204 395.093 217.204 400.186 Z M 403.482 404.093 C 402.734 402.096 390.937 370.313 378.852 337.892 C 375.457 328.765 372.062 319.644 368.667 310.517 C 365.732 302.667 362.797 294.818 359.919 286.969 C 358.02 281.749 356.064 276.57 354.165 271.35 C 353.589 269.739 353.014 268.208 352.554 266.557 C 352.208 265.412 351.575 264.22 350.482 263.795 C 349.676 263.501 348.813 263.668 347.95 263.841 C 338.685 265.492 329.017 264.56 319.81 262.903 C 310.66 261.291 301.395 258.748 292.82 255.053 C 288.792 253.315 284.591 251.917 280.563 250.3 C 272.852 247.33 264.507 243.509 256.048 244.528 C 252.077 245 248.394 246.692 244.826 248.476 C 242.87 249.454 240.971 250.513 239.187 251.577 C 235.561 253.655 232.051 255.819 228.656 258.195 C 227.735 258.788 226.872 259.594 225.778 259.594 C 224.743 259.553 223.822 258.788 222.959 258.195 C 219.563 255.859 216.053 253.655 212.428 251.577 C 210.586 250.513 208.687 249.454 206.73 248.476 C 203.163 246.692 199.48 245 195.509 244.528 C 187.05 243.509 178.705 247.371 170.994 250.3 C 166.966 251.871 162.765 253.315 158.679 255.053 C 150.162 258.748 140.897 261.251 131.747 262.903 C 122.54 264.56 112.872 265.492 103.607 263.841 C 102.744 263.668 101.823 263.501 101.075 263.795 C 99.982 264.22 99.349 265.412 99.003 266.557 C 98.485 268.168 97.967 269.739 97.392 271.35 C 95.493 276.57 93.536 281.749 91.637 286.969 C 88.702 294.818 85.825 302.667 82.89 310.517 C 79.495 319.644 76.1 328.765 72.705 337.892 C 60.62 370.313 48.823 402.056 48.017 404.093 C 46.578 407.995 44.507 411.942 44.334 416.184 C 44.276 417.755 44.622 419.452 45.543 420.684 C 46.406 421.869 47.729 422.594 49.11 423.014 C 50.952 423.613 52.966 423.866 54.923 423.993 C 62.864 424.459 70.921 422.675 78.574 420.81 C 84.847 419.28 91.004 417.542 97.104 415.631 C 109.419 411.77 121.504 407.189 133.646 402.816 C 139.113 400.824 144.638 398.828 150.22 397.13 C 155.456 395.519 160.636 394.034 166.16 393.907 C 177.957 393.648 189.409 398.615 198.962 405.405 C 208.284 412.069 217.319 420.298 223.822 429.851 C 224.57 430.95 225.145 431.462 225.778 431.503 C 226.354 431.503 226.929 430.95 227.677 429.851 C 234.18 420.298 243.215 412.069 252.595 405.405 C 262.09 398.615 273.542 393.608 285.339 393.907 C 290.864 394.034 296.043 395.519 301.28 397.13 C 306.919 398.828 312.386 400.824 317.91 402.816 C 330.053 407.189 342.138 411.77 354.395 415.631 C 360.553 417.542 366.71 419.28 372.925 420.81 C 380.579 422.675 388.693 424.459 396.577 423.993 C 398.533 423.866 400.547 423.613 402.446 423.014 C 403.77 422.594 405.151 421.829 405.957 420.684 C 406.935 419.412 407.28 417.755 407.165 416.184 C 406.935 411.942 404.921 407.995 403.482 404.093 Z" style="fill: rgb(255, 255, 255);"/>
  <path d="M 386.564 58.618 L 366.019 101.139 L 319.982 107.93 L 353.302 141.03 L 345.418 187.753 L 386.564 165.683 L 427.709 187.753 L 419.883 141.03 L 453.174 107.93 L 407.108 101.139 L 386.564 58.618 Z" style="fill: rgb(255, 255, 255);"/>
  <path d="M 253.861 81.533 L 264.91 104.368 L 289.54 108.016 L 271.643 125.752 L 275.901 150.831 L 253.861 138.993 L 231.763 150.831 L 235.964 125.752 L 218.125 108.016 L 242.755 104.368 L 253.861 81.533 Z" style="fill: rgb(255, 255, 255);"/>
  <path d="M 316.644 193.519 L 324.528 209.816 L 342.138 212.405 L 329.362 225.094 L 332.412 243.003 L 316.644 234.515 L 300.877 243.003 L 303.869 225.094 L 291.151 212.405 L 308.761 209.816 L 316.644 193.519 Z" style="fill: rgb(255, 255, 255);"/>
  <path d="M 353.302 141.025 C 353.302 141.025 268.766 144.759 195.336 220.888 C 121.849 296.976 111.031 367.845 111.031 367.845 L 146.537 355.627 L 182.101 367.845 C 182.101 367.845 187.625 307.461 232.109 243.809 C 276.65 180.197 353.302 141.025 353.302 141.025 Z" style="fill: rgb(255, 255, 255);"/>
</svg>